<?xml version="1.0" standalone="no"?>
<!DOCTYPE svg PUBLIC "-//W3C//DTD SVG 20010904//EN"
 "http://www.w3.org/TR/2001/REC-SVG-20010904/DTD/svg10.dtd">
<svg version="1.0" xmlns="http://www.w3.org/2000/svg"
 width="133.000000pt" height="124.000000pt" viewBox="0 0 133.000000 124.000000"
 preserveAspectRatio="xMidYMid meet">
<metadata>
Created by potrace 1.16, written by Peter Selinger 2001-2019
</metadata>
<g transform="translate(0.000000,124.000000) scale(0.100000,-0.100000)"
fill="#000000" stroke="none">
<path d="M1041 1093 c-1 -22 -6 -23 -78 -25 -80 -2 -139 -5 -183 -8 -18 -2
-20 -4 -7 -7 25 -6 21 -23 -5 -24 -19 -1 -17 -3 6 -8 16 -3 34 -15 40 -26 6
-10 21 -37 34 -58 22 -36 22 -40 7 -57 -18 -20 -13 -40 11 -40 8 0 14 8 14 18
0 13 -2 14 -9 3 -5 -8 -11 -9 -15 -3 -11 18 13 24 35 9 20 -15 20 -15 -11 -37
-23 -16 -30 -28 -27 -42 4 -15 -2 -23 -29 -34 -39 -16 -39 -17 -18 -39 15 -15
18 -13 38 20 20 33 24 35 36 20 12 -15 19 -11 63 37 28 30 46 44 43 33 -6 -20
-6 -20 9 -1 18 24 29 15 21 -18 -8 -34 -35 -58 -55 -51 -12 5 -13 4 -4 -6 18
-18 60 13 68 51 5 23 12 30 31 30 13 0 24 -1 24 -3 0 -2 -16 -43 -35 -91 l-36
-88 42 -64 c23 -35 45 -64 49 -64 4 0 13 7 20 15 7 9 15 13 18 11 6 -6 36 32
46 59 12 30 24 125 16 125 -5 0 -30 154 -30 187 0 13 46 4 59 -11 5 -6 11 -27
14 -46 4 -34 4 -34 5 6 2 45 -6 56 -53 71 -28 9 -30 14 -29 56 0 51 -10 61
-78 72 -27 4 -38 11 -41 28 l-4 22 -2 -22z"/>
<path d="M521 839 c-84 -28 -99 -30 -133 -20 -41 13 -58 8 -58 -14 0 -8 43
-49 96 -92 71 -58 94 -82 90 -96 -3 -14 -1 -16 9 -7 10 8 20 5 40 -12 l27 -23
-21 -19 c-12 -11 -21 -14 -21 -8 0 6 8 16 18 21 23 14 6 14 -19 0 -14 -7 -18
-16 -14 -30 5 -15 1 -20 -24 -25 -40 -8 -47 -21 -25 -45 22 -24 29 -18 14 13
-10 18 -10 21 0 11 10 -9 23 -2 58 32 25 25 48 42 51 39 4 -3 -7 -17 -23 -30
-15 -14 -26 -27 -23 -30 3 -3 19 9 36 28 29 31 32 32 45 15 8 -10 16 -14 17
-9 3 6 13 6 26 1 15 -5 26 -22 33 -51 8 -29 30 -62 68 -103 32 -33 60 -59 64
-57 4 1 4 -6 1 -14 -4 -12 -2 -15 8 -12 8 3 22 -2 33 -11 18 -15 18 -15 13 14
-18 91 -18 121 2 179 12 33 21 66 20 75 0 9 -10 -11 -22 -44 -20 -59 -21 -59
-28 -30 -5 16 -11 56 -15 87 -6 52 -5 58 12 58 10 0 29 -10 42 -22 l25 -23
-12 22 c-6 13 -24 25 -39 29 -47 10 -117 43 -115 54 2 5 -1 10 -6 10 -4 0 -14
27 -20 59 -6 33 -20 69 -29 81 -29 36 -91 35 -201 -1z m191 -7 c12 -12 48
-142 39 -142 -14 -1 -301 105 -301 111 0 4 12 9 28 13 15 3 50 13 77 21 54 16
140 14 157 -3z"/>
<path d="M255 552 c-23 -9 -84 -18 -144 -21 -58 -4 -106 -11 -108 -16 -2 -6
42 -39 98 -74 55 -35 106 -69 112 -76 7 -6 21 -14 31 -18 18 -7 18 -9 3 -24
-14 -15 -14 -17 6 -34 20 -16 24 -16 39 -2 10 8 25 13 33 9 19 -7 16 -28 -6
-35 -12 -4 -12 -1 1 15 14 18 14 18 -2 5 -19 -15 -15 -31 8 -31 11 0 14 -16
14 -72 0 -40 5 -80 10 -88 5 -8 10 -11 10 -6 0 5 11 -1 26 -14 21 -21 27 -22
34 -10 5 8 10 20 10 27 0 12 11 17 70 29 19 3 45 10 58 15 l23 9 -31 45 c-29
42 -30 46 -16 72 8 16 23 37 35 47 12 11 21 25 21 31 0 19 -37 61 -46 52 -4
-4 0 -13 10 -20 19 -14 14 -37 -22 -96 l-20 -32 -23 38 c-13 21 -39 55 -58 76
-33 36 -33 38 -16 57 17 19 18 19 47 -5 16 -14 37 -25 46 -25 9 0 1 8 -18 18
-26 13 -38 27 -47 57 -11 39 -11 39 -12 9 -1 -22 -9 -37 -26 -48 -24 -16 -26
-15 -92 45 -38 34 -69 65 -71 69 -7 19 100 27 156 11 35 -11 44 2 13 19 -29
15 -110 11 -156 -8z"/>
</g>
</svg>
